<svg version="1.1" id="Layer_1" xmlns="http://www.w3.org/2000/svg" xmlns:xlink="http://www.w3.org/1999/xlink" x="0px" y="0px"
	 width="100%" viewBox="0 0 1024 1024" enable-background="new 0 0 1024 1024" xml:space="preserve">
<path fill="#000000" opacity="1.000000" stroke="none" 
	d="
M477.000000,1025.000000 
	C318.000000,1025.000000 159.500000,1025.000000 1.000000,1025.000000 
	C1.000000,683.666687 1.000000,342.333344 1.000000,1.000000 
	C342.333344,1.000000 683.666687,1.000000 1025.000000,1.000000 
	C1025.000000,342.333344 1025.000000,683.666687 1025.000000,1025.000000 
	C842.500000,1025.000000 660.000000,1025.000000 477.000000,1025.000000 
M845.500000,821.000000 
	C857.597473,821.000000 869.694946,821.000000 881.714355,821.000000 
	C881.714355,636.022644 881.714355,451.622253 881.714355,267.288452 
	C840.357056,267.288452 799.286011,267.288452 758.285645,267.288452 
	C758.285645,451.977448 758.285645,636.377808 758.285645,821.000000 
	C787.213867,821.000000 815.856934,821.000000 845.500000,821.000000 
M513.000000,559.500000 
	C513.000000,482.406952 513.000000,405.313904 513.000000,328.288269 
	C471.690521,328.288269 430.952942,328.288269 390.285645,328.288269 
	C390.285645,492.643829 390.285645,656.710999 390.285645,820.711670 
	C431.309509,820.711670 472.047119,820.711670 513.000000,820.711670 
	C513.000000,733.782410 513.000000,647.141174 513.000000,559.500000 
M613.500000,451.000000 
	C600.402893,451.000000 587.305725,451.000000 574.286011,451.000000 
	C574.286011,574.644165 574.286011,697.711609 574.286011,820.711792 
	C615.643372,820.711792 656.713989,820.711792 697.713989,820.711792 
	C697.713989,697.355835 697.713989,574.288391 697.713989,451.000000 
	C669.785645,451.000000 642.142822,451.000000 613.500000,451.000000 
M210.599731,821.000000 
	C250.018463,821.000000 289.437195,821.000000 328.675995,821.000000 
	C328.675995,717.950745 328.675995,615.547607 328.675995,513.327026 
	C287.279816,513.327026 246.208267,513.327026 205.151245,513.327026 
	C205.151245,615.938843 205.151245,718.223450 205.151245,821.000000 
	C206.737564,821.000000 208.180115,821.000000 210.599731,821.000000 
z"/>
<path fill="#FFFFFF" opacity="1.000000" stroke="none" 
	d="
M845.000000,821.000000 
	C815.856934,821.000000 787.213867,821.000000 758.285645,821.000000 
	C758.285645,636.377808 758.285645,451.977448 758.285645,267.288452 
	C799.286011,267.288452 840.357056,267.288452 881.714355,267.288452 
	C881.714355,451.622253 881.714355,636.022644 881.714355,821.000000 
	C869.694946,821.000000 857.597473,821.000000 845.000000,821.000000 
z"/>
<path fill="#FFFFFF" opacity="1.000000" stroke="none" 
	d="
M513.000000,560.000000 
	C513.000000,647.141174 513.000000,733.782410 513.000000,820.711670 
	C472.047119,820.711670 431.309509,820.711670 390.285645,820.711670 
	C390.285645,656.710999 390.285645,492.643829 390.285645,328.288269 
	C430.952942,328.288269 471.690521,328.288269 513.000000,328.288269 
	C513.000000,405.313904 513.000000,482.406952 513.000000,560.000000 
z"/>
<path fill="#FFFFFF" opacity="1.000000" stroke="none" 
	d="
M614.000000,451.000000 
	C642.142822,451.000000 669.785645,451.000000 697.713989,451.000000 
	C697.713989,574.288391 697.713989,697.355835 697.713989,820.711792 
	C656.713989,820.711792 615.643372,820.711792 574.286011,820.711792 
	C574.286011,697.711609 574.286011,574.644165 574.286011,451.000000 
	C587.305725,451.000000 600.402893,451.000000 614.000000,451.000000 
z"/>
<path fill="#FFFFFF" opacity="1.000000" stroke="none" 
	d="
M210.111191,821.000000 
	C208.180115,821.000000 206.737564,821.000000 205.151245,821.000000 
	C205.151245,718.223450 205.151245,615.938843 205.151245,513.327026 
	C246.208267,513.327026 287.279816,513.327026 328.675995,513.327026 
	C328.675995,615.547607 328.675995,717.950745 328.675995,821.000000 
	C289.437195,821.000000 250.018463,821.000000 210.111191,821.000000 
z"/>
</svg>